<svg xmlns="http://www.w3.org/2000/svg" viewBox="85 57 590 393" width="32" height="32">
  <path d="M 371 347 L 371 440 L 464 440 L 464 347 Z M 371 348 L 463 347 L 464 439 L 372 440 Z" fill="#1E1F52" fill-rule="evenodd"/>
  <path d="M 95 439 L 342 440 L 342 347 L 152 347 Z" fill="#1E1F52" fill-rule="evenodd"/>
  <path d="M 168 316 L 342 316 L 342 224 L 225 224 Z" fill="#1E1F52" fill-rule="evenodd"/>
  <path d="M 93 159 L 340 159 L 340 67 L 150 67 Z" fill="#1E1F52" fill-rule="evenodd"/>
  <path d="M 372 348 L 372 439 L 463 439 L 463 348 Z" fill="#090228" fill-rule="evenodd"/>
  <path d="M 370 68 L 370 158 L 532 159 L 543 162 L 553 168 L 562 178 L 567 192 L 566 202 L 560 213 L 551 220 L 540 224 L 372 225 L 372 315 L 546 315 L 562 313 L 580 309 L 607 298 L 623 287 L 636 274 L 645 261 L 657 233 L 663 201 L 664 169 L 661 141 L 655 121 L 645 103 L 632 90 L 619 82 L 604 76 L 567 69 Z" fill="#090228" fill-rule="evenodd"/>
</svg>
